Patient4_TMGait_0pt5_01_right_27_GRF.mot
version=1
nRows=26
nColumns=19
inDegrees=no
endheader
time	F1x	F1y	F1z	M1x	M1y	M1z	F2x	F2y	F2z	M2x	M2y	M2z	EC1x	EC1y	EC1z	EC2x	EC2y	EC2z
35.43	6.7538	732.9344	63.8181	-266.7137	-49.4677	624.1248	3.4847	5.558	-14.746	4.5851	14.4352	8.3228	-0.0592	0.0182	-0.0073	-0.0462	0.0165	0.9585
35.4432	9.3453	730.1809	62.5772	-265.6123	-47.4501	618.4772	2.2227	4.7343	-9.9953	3.49	9.7908	6.5624	-0.0592	0.0182	-0.0073	-0.0462	0.0165	0.9585
35.4564	12.1697	728.5073	61.4615	-264.917	-45.3416	613.2777	1.1693	4.0493	-5.9612	2.5692	5.8479	5.1038	-0.0592	0.0182	-0.0073	-0.0462	0.0165	0.9585
35.4696	15.0525	728.5668	60.5507	-264.8794	-43.2725	609.1873	0.37997	3.5571	-2.8753	1.8815	2.832	4.033	-0.0592	0.0182	-0.0073	-0.0462	0.0165	0.9585
35.4829	17.8604	730.7128	59.8967	-265.6344	-41.35	606.5876	-0.16661	3.2669	-0.74817	1.4271	0.75588	3.3597	-0.0592	0.0182	-0.0073	-0.0462	0.0165	0.9585
35.4961	20.5173	734.9212	59.4774	-267.1753	-39.6034	605.5157	-0.50856	3.1374	0.56551	1.1669	-0.5203	3.0095	-0.0592	0.0182	-0.0073	-0.0462	0.0165	0.9585
35.5093	22.9966	740.8302	59.2747	-269.368	-38.0485	605.7181	-0.7074	3.1001	1.2503	1.0419	-1.1696	2.874	-0.0592	0.0182	-0.0073	-0.0462	0.0165	0.9585
35.5225	25.3253	747.8644	59.2266	-271.9971	-36.6431	606.7573	-0.81385	3.0627	1.5029	0.98507	-1.3803	2.8173	-0.0592	0.0182	-0.0073	-0.0462	0.0165	0.9585
35.5357	27.5586	755.3447	59.2944	-274.8039	-35.3507	608.1072	-0.86618	2.9181	1.4779	0.92848	-1.3084	2.6943	-0.0592	0.0182	-0.0073	-0.0462	0.0165	0.9585
35.5489	29.7776	762.5972	59.4294	-277.5284	-34.1091	609.2512	-0.89736	2.552	1.3048	0.80688	-1.0903	2.3693	-0.0592	0.0182	-0.0073	-0.0462	0.0165	0.9585
35.5621	32.0613	769.0024	59.6208	-279.93	-32.8871	609.7199	-0.9135	1.8343	1.0692	0.5561	-0.8207	1.6962	-0.0592	0.0182	-0.0073	-0.0462	0.0165	0.9585
35.5754	34.4578	774.0202	59.8648	-281.7919	-31.6709	609.1238	-0.92194	0.66351	0.83655	0.12517	-0.56835	0.57329	-0.0592	0.0182	-0.0073	-0.0462	0.0165	0.9585
35.5886	36.98	777.2162	60.1701	-282.9354	-30.4711	607.182	-0.89324	-1.0429	0.64388	-0.52232	-0.38372	-1.094	-0.0592	0.0182	-0.0073	-0.0462	0.0165	0.9585
35.6018	39.6086	778.3065	60.5238	-283.2398	-29.2945	603.7563	-0.79407	-3.2871	0.52074	-1.3889	-0.30997	-3.3134	-0.0592	0.0182	-0.0073	-0.0462	0.0165	0.9585
35.615	42.295	777.1254	60.9103	-282.6289	-28.1572	598.8088	-0.57045	-5.9389	0.48404	-2.4217	-0.37988	-5.9606	-0.0592	0.0182	-0.0073	-0.0462	0.0165	0.9585
35.6282	44.9549	773.5908	61.3063	-281.0586	-27.079	592.3686	-0.16182	-8.6425	0.54532	-3.4774	-0.62169	-8.6888	-0.0592	0.0182	-0.0073	-0.0462	0.0165	0.9585
35.6414	47.484	767.6763	61.6834	-278.5081	-26.0813	584.5075	0.48267	-10.7195	0.70799	-4.2838	-1.0555	-10.8202	-0.0592	0.0182	-0.0073	-0.0462	0.0165	0.9585
35.6546	49.7824	759.4148	62.0132	-274.9825	-25.1833	575.322	1.4128	-11.0943	0.96922	-4.4079	-1.6916	-11.2819	-0.0592	0.0182	-0.0073	-0.0462	0.0165	0.9585
35.6679	51.7745	748.9265	62.2648	-270.5246	-24.3972	564.9482	2.623	-8.1967	1.3111	-3.2216	-2.5034	-8.5029	-0.0592	0.0182	-0.0073	-0.0462	0.0165	0.9585
35.6811	53.4151	736.3751	62.41	-265.2061	-23.7281	553.5128	4.0487	0.027555	1.7006	0.09566	-3.4203	-0.45129	-0.0592	0.0182	-0.0073	-0.0462	0.0165	0.9585
35.6943	54.6895	721.9189	62.3878	-259.1062	-23.141	541.1149	5.4871	16.0009	2.0677	6.5064	-4.2807	15.2804	-0.0592	0.0182	-0.0073	-0.0462	0.0165	0.9585
35.7075	55.5808	705.5983	62.0942	-252.2691	-22.5652	527.749	6.5571	42.2011	2.291	16.9913	-4.799	41.1597	-0.0592	0.0182	-0.0073	-0.0462	0.0165	0.9585
35.7207	56.0413	687.188	61.3759	-244.6529	-21.9013	513.2116	6.5813	80.6188	2.1997	32.331	-4.523	79.1706	-0.0592	0.0182	-0.0073	-0.0462	0.0165	0.9585
35.7339	55.9804	666.0941	60.0424	-236.0963	-21.0342	497.0181	4.5082	131.8719	1.5959	52.7516	-2.8335	129.9584	-0.0592	0.0182	-0.0073	-0.0462	0.0165	0.9585
35.7471	55.2972	641.3746	57.9065	-226.3269	-19.86	478.4131	-0.6336	194.0733	0.27731	77.4766	0.84537	191.7084	-0.0592	0.0182	-0.0073	-0.0462	0.0165	0.9585
35.7604	53.9199	611.962	54.8247	-215.0352	-18.2965	456.5342	-8.761	262.0561	-1.9155	104.4158	6.6112	259.3392	-0.0592	0.0182	-0.0073	-0.0462	0.0165	0.9585
